HIERARCHY
ROOT Hips
{
	OFFSET 0.000000 0.000000 0.000000
	CHANNELS 6 Xposition Yposition Zposition Zrotation Yrotation Xrotation 
	JOINT LHipJoint
	{
		OFFSET 0.000000 0.000000 0.000000
		CHANNELS 3 Zrotation Yrotation Xrotation
		JOINT LeftUpLeg
		{
			OFFSET 1.363060 -1.794630 0.839290
			CHANNELS 3 Zrotation Yrotation Xrotation
			JOINT LeftLeg
			{
				OFFSET 2.448110 -6.726130 0.000000
				CHANNELS 3 Zrotation Yrotation Xrotation
				JOINT LeftFoot
				{
					OFFSET 2.562200 -7.039590 0.000000
					CHANNELS 3 Zrotation Yrotation Xrotation
					JOINT LeftToeBase
					{
						OFFSET 0.157640 -0.433110 2.322550
						CHANNELS 3 Zrotation Yrotation Xrotation
						End Site
						{
							OFFSET 0.000000 0.000000 0.000000
						}
					}
				}
			}
		}
	}
	JOINT RHipJoint
	{
		OFFSET 0.000000 0.000000 0.000000
		CHANNELS 3 Zrotation Yrotation Xrotation
		JOINT RightUpLeg
		{
			OFFSET -1.305520 -1.794630 0.839290
			CHANNELS 3 Zrotation Yrotation Xrotation
			JOINT RightLeg
			{
				OFFSET -2.542530 -6.985550 0.000000
				CHANNELS 3 Zrotation Yrotation Xrotation
				JOINT RightFoot
				{
					OFFSET -2.568260 -7.056230 0.000000
					CHANNELS 3 Zrotation Yrotation Xrotation
					JOINT RightToeBase
					{
						OFFSET -0.164730 -0.452590 2.363150
						CHANNELS 3 Zrotation Yrotation Xrotation
						End Site
						{
							OFFSET 0.000000 0.000000 0.000000
						}
					}
				}
			}
		}
	}
	JOINT LowerBack
	{
		OFFSET 0.000000 0.000000 0.000000
		CHANNELS 3 Zrotation Yrotation Xrotation
		JOINT Spine
		{
			OFFSET 0.028270 2.035590 -0.193380
			CHANNELS 3 Zrotation Yrotation Xrotation
			JOINT Spine1
			{
				OFFSET 0.056720 2.048850 -0.042750
				CHANNELS 3 Zrotation Yrotation Xrotation
				JOINT Neck
				{
					OFFSET 0.000000 0.000000 0.000000
					CHANNELS 3 Zrotation Yrotation Xrotation
					JOINT Neck1
					{
						OFFSET -0.054170 1.746240 0.172020
						CHANNELS 3 Zrotation Yrotation Xrotation
						JOINT Head
						{
							OFFSET 0.104070 1.761360 -0.123970
							CHANNELS 3 Zrotation Yrotation Xrotation
							End Site
							{
								OFFSET 0.000000 0.000000 0.000000
							}
						}
					}
				}
				JOINT LeftShoulder
				{
					OFFSET 0.000000 0.000000 0.000000
					CHANNELS 3 Zrotation Yrotation Xrotation
					JOINT LeftArm
					{
						OFFSET 3.362410 1.200890 -0.311210
						CHANNELS 3 Zrotation Yrotation Xrotation
						JOINT LeftForeArm
						{
							OFFSET 4.983000 -0.000000 -0.000000
							CHANNELS 3 Zrotation Yrotation Xrotation
							JOINT LeftHand
							{
								OFFSET 3.483560 -0.000000 -0.000000
								CHANNELS 3 Zrotation Yrotation Xrotation
								JOINT LeftFingerBase
								{
									OFFSET 0.000000 0.000000 0.000000
									CHANNELS 3 Zrotation Yrotation Xrotation
									JOINT LeftHandIndex1
									{
										OFFSET 0.715260 -0.000000 -0.000000
										CHANNELS 3 Zrotation Yrotation Xrotation
										End Site
										{
											OFFSET 0.000000 0.000000 0.000000
										}
									}
								}
								JOINT LThumb
								{
									OFFSET 0.000000 0.000000 0.000000
									CHANNELS 3 Zrotation Yrotation Xrotation
									End Site
									{
										OFFSET 0.000000 0.000000 0.000000
									}
								}
							}
						}
					}
				}
				JOINT RightShoulder
				{
					OFFSET 0.000000 0.000000 0.000000
					CHANNELS 3 Zrotation Yrotation Xrotation
					JOINT RightArm
					{
						OFFSET -3.136600 1.374050 -0.404650
						CHANNELS 3 Zrotation Yrotation Xrotation
						JOINT RightForeArm
						{
							OFFSET -5.241900 -0.000000 -0.000000
							CHANNELS 3 Zrotation Yrotation Xrotation
							JOINT RightHand
							{
								OFFSET -3.444170 -0.000000 -0.000000
								CHANNELS 3 Zrotation Yrotation Xrotation
								JOINT RightFingerBase
								{
									OFFSET 0.000000 0.000000 0.000000
									CHANNELS 3 Zrotation Yrotation Xrotation
									JOINT RightHandIndex1
									{
										OFFSET -0.622530 -0.000000 -0.000000
										CHANNELS 3 Zrotation Yrotation Xrotation
										End Site
										{
											OFFSET 0.000000 0.000000 0.000000
										}
									}
								}
								JOINT RThumb
								{
									OFFSET 0.000000 0.000000 0.000000
									CHANNELS 3 Zrotation Yrotation Xrotation
									End Site
									{
										OFFSET 0.000000 0.000000 0.000000
									}
								}
							}
						}
					}
				}
			}
		}
	}
}
MOTION
Frames: 9
Frame Time: 0.008333
-0.137779 28.814622 -9.716552 77.242989 -88.216781 -74.658303 -2.518123 4.349079 4.518167 -20.746151 7.139720 -24.565337 2.301559 8.995025 30.392718 -3.984727 17.393470 -11.837988 0.099100 -2.029800 -5.588100 -2.613006 -6.256208 4.048940 26.484641 15.094056 -6.553363 -2.192930 -6.387043 25.641668 3.818447 -18.572180 -21.225217 -0.282100 -3.416300 9.439900 4.513081 2.432196 -0.549865 -7.660443 2.745776 11.717840 2.519326 1.461251 -7.278964 14.711122 -10.176558 6.735937 -31.731111 -18.342231 -23.933098 -8.310700 -6.755100 -9.853000 -8.221919 -0.551521 -1.297605 -80.616268 -4.235919 -16.826217 7.169497 -10.520616 -0.572641 -1.310214 -0.524351 20.556544 28.663430 20.488802 11.736300 -7.125000 0.000000 0.000000 1.076800 54.209900 0.243800 8.207676 2.676131 -1.547221 67.134106 1.003072 28.448897 -19.786967 25.839985 -6.001199 0.556791 0.326676 22.482117 -20.659301 4.652470 -1.573500 7.125000 0.000000 0.000000 4.216000 -25.593100 1.986200 
-0.139420 28.812401 -9.726303 64.636138 -88.611282 -61.755904 -2.470088 4.432731 4.488571 -20.389458 7.090480 -24.731212 2.200717 8.945577 30.030952 -4.029851 17.587493 -12.145458 0.095600 -1.993500 -5.487700 -2.581067 -6.111370 3.933378 27.036631 14.988297 -6.788076 -2.217310 -6.394986 25.751536 3.848665 -18.717739 -21.303136 -0.274200 -3.368300 9.305800 5.097352 2.720483 -0.578251 -7.887555 3.105112 11.068363 2.189080 1.642685 -6.979726 15.610990 -11.412875 9.077735 -31.989681 -20.990176 -27.027378 -8.326500 -7.749300 -12.087400 -8.242100 -0.574874 -1.268176 -80.221194 -4.191444 -17.683159 7.118381 -10.438997 -0.566033 -1.280279 -0.494793 22.086928 27.615932 20.469601 11.224600 -7.125000 0.000000 0.000000 -0.079100 53.959800 -0.017400 8.289938 2.739066 -1.509375 67.373187 1.017265 27.951714 -19.775499 25.781661 -6.002828 0.502884 0.268592 23.173441 -20.137261 5.551350 -1.890800 7.125000 0.000000 0.000000 4.617600 -24.572900 2.286300 
-0.145696 28.806608 -9.732676 55.962472 -88.409736 -52.974726 -2.510371 4.513521 4.496221 -20.622310 7.154389 -24.665600 2.125831 8.845838 29.606818 -4.279157 18.333454 -11.706102 0.211600 -2.961500 -8.171700 -2.581670 -6.010055 3.847607 27.020503 14.868469 -6.835742 -2.225531 -6.395739 25.795510 3.865347 -18.878819 -21.549225 -0.281700 -3.413700 9.432800 5.020898 2.916056 -0.607408 -8.015086 3.318022 10.708568 2.192913 1.776281 -6.846217 15.763651 -11.830634 10.235128 -31.775135 -22.089261 -28.782794 -8.199800 -8.132800 -13.255600 -8.239127 -0.577479 -1.257343 -80.134444 -4.006544 -18.477639 7.131994 -10.474689 -0.569183 -1.262601 -0.501548 23.296351 26.697103 21.010233 11.058100 -7.125000 0.000000 0.000000 -1.232300 54.380300 -0.284100 8.322846 2.758473 -1.492003 67.315184 0.979686 27.987518 -19.800090 25.810863 -6.028830 0.475650 0.255356 23.454295 -19.832774 5.824639 -1.966600 7.125000 0.000000 0.000000 4.856700 -24.269300 2.439700 
-0.159213 28.800332 -9.734221 51.048956 -87.830418 -48.162287 -2.606088 4.574812 4.539300 -21.067421 6.996535 -24.185962 2.043414 8.679721 29.105491 -4.506597 19.032969 -11.367619 0.360300 -3.856200 -10.672600 -2.600409 -5.964613 3.794910 26.675542 14.451904 -6.786891 -2.231873 -6.409740 25.843496 3.841576 -18.909126 -21.787596 -0.286400 -3.441400 9.510300 4.726596 3.000978 -0.647189 -8.255383 3.388563 10.643080 2.319062 1.830426 -6.741478 15.661209 -12.102386 11.124759 -31.270800 -22.820485 -30.178904 -7.951400 -8.383400 -14.130600 -8.198762 -0.592945 -1.260085 -80.207697 -3.782111 -18.133569 7.175004 -10.531416 -0.576530 -1.270547 -0.520639 22.218407 27.107046 20.990875 11.245300 -7.125000 0.000000 0.000000 -0.772200 54.446700 -0.179200 8.345922 2.774358 -1.484358 67.213197 1.088661 28.499254 -19.794415 25.789922 -6.025521 0.477074 0.281804 23.218162 -19.725230 5.450958 -1.810200 7.125000 0.000000 0.000000 4.949000 -24.694400 2.437500 
-0.169737 28.794539 -9.735959 44.154162 -87.414900 -41.430555 -2.700507 4.653835 4.611773 -21.122512 6.668899 -23.648340 1.927381 8.508141 28.555979 -4.590794 19.322924 -11.501909 0.348900 -3.795400 -10.501700 -2.632017 -5.913673 3.743822 26.630027 13.872184 -6.618256 -2.210529 -6.350563 25.710772 3.815236 -18.863507 -21.870545 -0.295500 -3.495600 9.661800 4.693099 3.051316 -0.651706 -8.420720 3.438833 10.713996 2.304888 1.867551 -6.664880 15.685571 -12.304648 11.711335 -30.852563 -23.370331 -31.280078 -7.772700 -8.586900 -14.839300 -8.166298 -0.608190 -1.267051 -80.234603 -3.623567 -18.485704 7.210306 -10.596872 -0.583323 -1.257474 -0.511223 22.401529 26.879723 20.751355 11.018900 -7.125000 0.000000 0.000000 -0.964500 54.129000 -0.216400 8.361705 2.805449 -1.475608 67.192495 1.370124 29.090401 -19.765634 25.710343 -5.982936 0.519793 0.339264 22.890245 -20.081983 4.344331 -1.410100 7.125000 0.000000 0.000000 4.690600 -25.933400 2.173800 
-0.178717 28.791546 -9.742910 36.724751 -87.146538 -34.063724 -2.784716 4.731583 4.664590 -20.950019 6.280724 -23.248588 1.818626 8.369112 28.027325 -4.760698 19.860452 -11.441139 0.295800 -3.497400 -9.666800 -2.671827 -5.849147 3.679155 26.850027 13.515193 -6.370056 -2.165378 -6.235276 25.436095 3.856574 -19.042788 -22.012782 -0.305200 -3.551600 9.818400 4.504700 3.067296 -0.585401 -8.087879 3.435130 10.516435 2.311871 1.902057 -6.628245 15.469745 -12.516581 12.777187 -30.263782 -24.084605 -32.916166 -7.459300 -8.807500 -15.873100 -8.207661 -0.616295 -1.272522 -80.366305 -3.299574 -19.147184 7.271369 -10.700917 -0.592972 -1.238087 -0.501796 23.230580 26.290275 20.665896 10.701600 -7.125000 0.000000 0.000000 -1.595200 53.915100 -0.349700 8.366677 2.818909 -1.464108 67.020270 1.490303 29.621306 -19.729857 25.638641 -5.939958 0.569750 0.369550 22.616801 -20.656552 3.585880 -1.146100 7.125000 0.000000 0.000000 4.245400 -26.781000 1.881900 
-0.190786 28.823987 -9.752179 29.643260 -86.883174 -26.948459 -2.858576 4.734770 4.735077 -19.758864 3.733360 -22.102422 1.587056 8.220859 27.689172 -3.648898 17.026349 -15.291139 0.144900 2.453100 6.759500 -2.730336 -5.791085 3.610126 27.164395 13.348445 -6.035274 -2.090501 -6.069515 25.016316 3.867493 -19.206725 -22.340960 -0.336600 -3.728300 10.313400 4.301882 3.078206 -0.546451 -7.662702 3.424965 10.268150 2.320133 1.936577 -6.603235 15.094176 -12.661495 13.743981 -29.592781 -24.621334 -34.354492 -7.084200 -8.953700 -16.729100 -8.263851 -0.626442 -1.283184 -80.541199 -2.862482 -17.732093 7.374866 -10.819654 -0.607622 -1.255663 -0.538798 20.626241 27.356094 20.330938 11.038700 -7.125000 0.000000 0.000000 -0.340400 53.765100 -0.073400 8.372728 2.830944 -1.448911 66.878780 1.657833 29.746838 -19.679086 25.559548 -5.910588 0.558404 0.359805 22.965297 -20.512397 3.590791 -1.143600 7.125000 0.000000 0.000000 4.362600 -26.765300 1.935800 
-0.200537 28.835380 -9.755365 23.613244 -86.466955 -20.863732 -2.965135 4.739049 4.774066 -19.122992 2.198119 -21.466269 1.470266 8.128581 27.414355 -3.207758 16.031286 -16.874963 0.550500 4.753000 13.205500 -2.811480 -5.773423 3.572097 27.447898 13.168383 -5.804350 -2.021320 -5.916189 24.614261 3.942291 -19.501561 -22.531075 -0.340200 -3.748100 10.369100 4.292180 3.107228 -0.609822 -7.506303 3.450903 10.164028 2.259926 1.966829 -6.511313 14.892147 -12.833243 14.362867 -28.893223 -25.116527 -35.604248 -6.719600 -9.131100 -17.470700 -8.279905 -0.657859 -1.280651 -80.506470 -2.737440 -18.427443 7.437543 -10.936213 -0.619920 -1.226666 -0.557807 21.925915 26.080978 21.025851 10.780400 -7.125000 0.000000 0.000000 -1.928400 54.289800 -0.440400 8.385181 2.855382 -1.435434 66.881742 1.959419 29.409491 -19.670067 25.528337 -5.916313 0.479127 0.370708 24.176514 -19.362126 3.464689 -1.032800 7.125000 0.000000 0.000000 5.311200 -26.898000 2.343200 
-0.208841 28.834801 -9.756138 20.371499 -85.882987 -17.586107 -3.047478 4.730934 4.783916 -18.947405 1.353650 -21.113455 1.415205 8.066429 27.244349 -3.036118 15.648862 -17.441720 0.766100 5.589400 15.597600 -2.864150 -5.779552 3.548065 27.531038 12.868172 -5.669794 -1.959223 -5.791635 24.253828 4.038836 -19.816994 -22.619528 -0.331800 -3.702200 10.240400 4.244275 3.118946 -0.647598 -7.564906 3.453885 10.041591 2.264478 1.975983 -6.467148 14.942431 -12.968604 14.617552 -28.643822 -25.478305 -36.273851 -6.583600 -9.274500 -17.953700 -8.276442 -0.667291 -1.275469 -80.520872 -2.564152 -18.412851 7.481122 -11.003601 -0.627479 -1.222151 -0.556094 21.817763 26.098574 20.878124 10.718400 -7.125000 0.000000 0.000000 -1.871100 54.129300 -0.420000 8.399369 2.869864 -1.419947 66.892060 2.138900 29.380384 -19.689668 25.542296 -5.934373 0.440855 0.387341 24.741701 -18.776246 3.277602 -0.933000 7.125000 0.000000 0.000000 5.801800 -27.103600 2.533400 
